<svg width="98" height="21" viewBox="0 0 98 21" fill="none" xmlns="http://www.w3.org/2000/svg">
<path d="M43.2205 7.2867C44.2521 6.22798 45.2596 5.25707 46.6323 4.91153C49.1711 4.27226 51.7029 5.14526 52.3807 8.51218C52.5096 9.15398 52.562 9.80209 52.5614 10.4572C52.5582 13.428 52.5431 16.3989 52.5753 19.3691C52.581 19.9269 52.4003 20.0342 51.8987 20.0115C51.0447 19.973 50.185 19.9572 49.3334 20.0159C48.7365 20.057 48.6474 19.8353 48.6506 19.3002C48.6676 16.4431 48.6443 13.5853 48.6316 10.7275C48.6297 10.322 48.5855 9.92085 48.4743 9.52731C48.1446 8.3612 47.1989 7.83943 46.0221 8.18243C45.1497 8.43701 44.4947 9.01311 43.8655 9.63091C43.6526 9.84 43.7272 10.0933 43.7272 10.3302C43.7221 13.3459 43.712 16.3616 43.736 19.3773C43.7398 19.8687 43.6394 20.0425 43.1157 20.0147C42.2174 19.9666 41.3135 19.9742 40.4146 20.0128C39.9433 20.033 39.8145 19.9003 39.8176 19.4221C39.8366 16.5644 39.8252 13.7059 39.8088 10.8482C39.8063 10.4464 39.7557 10.0377 39.6667 9.64607C39.3792 8.38015 38.3508 7.81858 37.1051 8.2077C36.2801 8.46543 35.6712 9.02385 35.0736 9.60753C34.8607 9.81536 34.9226 10.0655 34.9226 10.3043C34.9189 13.32 34.9062 16.3357 34.9334 19.3514C34.9384 19.8839 34.7995 20.0393 34.2676 20.014C33.3238 19.9692 32.3763 19.9907 31.4307 20.0077C31.118 20.0134 31.0043 19.9338 31.0049 19.599C31.015 14.9182 31.015 10.2367 31.0055 5.55586C31.0049 5.23686 31.0889 5.12568 31.4186 5.13452C32.2285 5.156 33.0402 5.15158 33.8507 5.13642C34.1406 5.13073 34.2423 5.24191 34.272 5.51922C34.3232 6.00563 34.4103 6.48824 34.5 7.09214C35.8247 5.81359 37.1487 4.75487 39.0217 4.72645C40.9465 4.69676 42.3621 5.45542 43.2205 7.2867Z" fill="#FFF2F0"/>
<path d="M5.19977 16.7159C7.36457 16.7159 9.40683 16.7159 11.4497 16.7159C12.2381 16.7159 13.0283 16.7462 13.8141 16.7052C14.3069 16.6793 14.4237 16.8587 14.4004 17.3167C14.3644 18.0355 14.3707 18.7575 14.3991 19.477C14.4143 19.8687 14.3366 20.0228 13.8925 20.0216C9.52243 20.0039 5.15239 20.0077 0.781711 20.0171C0.444387 20.0178 0.338896 19.9375 0.313629 19.5756C0.227719 18.3305 0.487342 17.2598 1.22326 16.1796C3.88269 12.2764 6.43409 8.29862 9.02277 4.34676C9.14152 4.16546 9.3184 4.01006 9.33987 3.69864C8.03164 3.69864 6.73604 3.69864 5.44044 3.69864C4.17895 3.69864 2.91746 3.68537 1.65597 3.70622C1.27254 3.71254 1.14746 3.59694 1.16073 3.21097C1.18789 2.42389 1.18852 1.6349 1.16009 0.847814C1.14683 0.471958 1.29465 0.406893 1.62881 0.407525C5.70638 0.417 9.78332 0.417632 13.8609 0.406261C14.2146 0.404998 14.2923 0.508596 14.3176 0.856027C14.4105 2.10488 14.1281 3.17118 13.3928 4.24948C10.7441 8.13312 8.20409 12.0913 5.62426 16.0217C5.50298 16.2074 5.3918 16.4013 5.19977 16.7159Z" fill="#FFF2F0"/>
<path d="M97.2635 11.1066C96.6267 6.02272 91.2965 3.14853 86.8892 5.5559C84.1281 7.06438 83.1262 9.58484 83.0908 12.5898C83.0908 12.8823 83.075 13.176 83.0953 13.4672C83.1155 13.7578 83.1565 14.0496 83.2146 14.3352C83.7983 17.2043 85.3466 19.2939 88.229 20.1196C91.0179 20.9187 93.5055 20.239 95.4511 18.0615C97.2211 16.0805 97.5844 13.6681 97.2635 11.1066ZM92.7841 15.4716C92.3173 16.577 91.4488 17.1967 90.2037 17.1923C88.9567 17.1885 88.1425 16.5404 87.6276 15.4545C87.193 14.5392 87.0774 13.562 87.0869 12.5626C87.0907 11.5665 87.1956 10.5886 87.6409 9.67517C88.1671 8.59561 88.9763 7.94749 90.2252 7.94875C91.4462 7.95002 92.2971 8.56655 92.762 9.63663C93.5984 11.5633 93.6003 13.5373 92.7841 15.4716Z" fill="#FFF2F0"/>
<path d="M69.0116 10.5823C68.4582 7.7321 66.3092 5.40558 63.6321 4.89201C60.6789 4.32538 58.1819 5.1668 56.3803 7.62471C54.8472 9.71625 54.6374 12.1217 55.1087 14.591C55.9773 19.1417 60.6903 21.6994 64.8557 19.8397C67.9503 18.4582 69.1215 15.8342 69.196 12.6024C69.2036 11.9183 69.1411 11.2481 69.0116 10.5823ZM64.5493 15.6396C64.0206 16.6301 63.2177 17.186 62.0687 17.193C60.9196 17.2005 60.051 16.6788 59.5811 15.6636C58.6348 13.6195 58.6266 11.5254 59.5848 9.48315C60.0561 8.4775 60.9158 7.94056 62.0705 7.94751C63.2253 7.95446 64.0174 8.52993 64.5474 9.51031C65.0635 10.4648 65.1589 11.5166 65.2145 12.5639C65.1614 13.6334 65.061 14.682 64.5493 15.6396Z" fill="#FFF2F0"/>
<path d="M26.8823 6.624C24.5242 3.85592 19.7069 4.13955 17.256 7.14072C15.5953 9.1735 15.1562 11.5341 15.515 14.0552C15.9155 16.8688 17.3545 18.9818 20.0992 19.9571C22.7384 20.8952 25.2646 20.4233 27.6473 19.0191C27.9284 18.8536 28.0307 18.7133 27.8235 18.4C27.5639 18.0083 27.3258 17.594 27.1432 17.1613C26.8766 16.5289 26.5734 16.2238 25.9146 16.7507C25.679 16.9383 25.3536 17.0248 25.0574 17.1233C22.3341 18.0298 19.9135 16.7898 19.3147 14.2075C19.2117 13.7627 19.2944 13.6295 19.772 13.6408C21.1213 13.6718 22.4725 13.6516 23.8224 13.6516C25.1951 13.6516 26.5684 13.6528 27.941 13.6497C28.1539 13.6497 28.4098 13.7185 28.4508 13.3755C28.7446 10.9347 28.5513 8.58287 26.8823 6.624ZM25.2077 10.7919C25.1736 11.1134 24.9898 11.0743 24.7927 11.0743C23.9153 11.0768 23.0385 11.0755 22.1611 11.0755C21.3064 11.0755 20.4517 11.08 19.5977 11.0717C19.4277 11.0698 19.2047 11.1785 19.2155 10.8033C19.2698 8.81849 21.5445 7.27274 23.4484 7.94929C24.5223 8.33146 25.3271 9.6618 25.2077 10.7919Z" fill="#FFF2F0"/>
<path d="M76.3034 20.4228C73.9226 20.4051 72.169 19.7393 70.5563 18.6357C70.2367 18.4171 70.147 18.2491 70.4337 17.9061C70.8797 17.3723 71.2821 16.7981 71.6636 16.2151C71.8828 15.8803 72.0484 15.8929 72.3478 16.1165C73.5284 16.9977 74.819 17.5681 76.3426 17.4469C76.6635 17.4216 76.9673 17.3597 77.2503 17.2245C78.1998 16.7716 78.3615 15.6516 77.5744 14.9529C77.0097 14.452 76.3034 14.2025 75.6149 13.9321C74.6547 13.555 73.7021 13.1747 72.8285 12.6049C70.1135 10.8349 70.579 7.03657 73.0325 5.60642C75.5252 4.15416 78.9306 4.52055 81.3987 6.38151C81.5926 6.52806 81.5806 6.6405 81.4473 6.81611C80.9723 7.44402 80.4947 8.07065 80.0456 8.71751C79.834 9.02198 79.683 8.83816 79.5011 8.71688C78.5314 8.07002 77.515 7.59309 76.2977 7.69543C75.4576 7.76555 74.8442 8.16099 74.7065 8.80215C74.5739 9.42058 74.8663 9.96384 75.642 10.3454C76.3034 10.6707 77.0065 10.9095 77.6875 11.1956C78.2036 11.4123 78.7222 11.6239 79.2237 11.8709C81.0253 12.7572 81.9602 14.1633 81.736 16.2138C81.5206 18.179 80.3412 19.3615 78.5434 20.0002C77.6919 20.3034 76.8075 20.4474 76.3034 20.4228Z" fill="#FFF2F0"/>
</svg>
